<svg xmlns="http://www.w3.org/2000/svg" width="718.078125px" height="562px" class="sequence simple"><desc></desc><defs><marker viewBox="0 0 5 5" markerWidth="5" markerHeight="5" orient="auto" refX="5" refY="2.5" id="markerArrowBlock"><path d="M 0 0 L 5 2.5 L 0 5 z"/></marker><marker viewBox="0 0 9.6 16" markerWidth="4" markerHeight="16" orient="auto" refX="9.6" refY="8" id="markerArrowOpen"><path d="M 9.6,8 1.92,16 0,13.7 5.76,8 0,2.286 1.92,0 9.6,8 z"/></marker></defs><g class="title"/><g class="actor"><rect x="10" y="20" width="154.421875" height="38.5" stroke="#000000" fill="#ffffff" style="stroke-width: 2;"/><text x="20" y="43.5" style="font-size: 16px; font-family: &quot;Andale Mono&quot;, monospace;"><tspan x="20">Serverless CLI</tspan></text></g><g class="actor"><rect x="10" y="503.5" width="154.421875" height="38.5" stroke="#000000" fill="#ffffff" style="stroke-width: 2;"/><text x="20" y="527" style="font-size: 16px; font-family: &quot;Andale Mono&quot;, monospace;"><tspan x="20">Serverless CLI</tspan></text></g><line x1="87.2109375" x2="87.2109375" y1="58.5" y2="503.5" stroke="#000000" fill="none" style="stroke-width: 2;"/><g class="actor"><rect x="223.21875" y="20" width="154.421875" height="38.5" stroke="#000000" fill="#ffffff" style="stroke-width: 2;"/><text x="233.21875" y="43.5" style="font-size: 16px; font-family: &quot;Andale Mono&quot;, monospace;"><tspan x="233.21875">Resource Group</tspan></text></g><g class="actor"><rect x="223.21875" y="503.5" width="154.421875" height="38.5" stroke="#000000" fill="#ffffff" style="stroke-width: 2;"/><text x="233.21875" y="527" style="font-size: 16px; font-family: &quot;Andale Mono&quot;, monospace;"><tspan x="233.21875">Resource Group</tspan></text></g><line x1="300.4296875" x2="300.4296875" y1="58.5" y2="503.5" stroke="#000000" fill="none" style="stroke-width: 2;"/><g class="actor"><rect x="397.640625" y="20" width="135.21875" height="38.5" stroke="#000000" fill="#ffffff" style="stroke-width: 2;"/><text x="407.640625" y="43.5" style="font-size: 16px; font-family: &quot;Andale Mono&quot;, monospace;"><tspan x="407.640625">Function App</tspan></text></g><g class="actor"><rect x="397.640625" y="503.5" width="135.21875" height="38.5" stroke="#000000" fill="#ffffff" style="stroke-width: 2;"/><text x="407.640625" y="527" style="font-size: 16px; font-family: &quot;Andale Mono&quot;, monospace;"><tspan x="407.640625">Function App</tspan></text></g><line x1="465.25" x2="465.25" y1="58.5" y2="503.5" stroke="#000000" fill="none" style="stroke-width: 2;"/><g class="actor"><rect x="552.859375" y="20" width="135.21875" height="38.5" stroke="#000000" fill="#ffffff" style="stroke-width: 2;"/><text x="562.859375" y="43.5" style="font-size: 16px; font-family: &quot;Andale Mono&quot;, monospace;"><tspan x="562.859375">Blob Storage</tspan></text></g><g class="actor"><rect x="552.859375" y="503.5" width="135.21875" height="38.5" stroke="#000000" fill="#ffffff" style="stroke-width: 2;"/><text x="562.859375" y="527" style="font-size: 16px; font-family: &quot;Andale Mono&quot;, monospace;"><tspan x="562.859375">Blob Storage</tspan></text></g><line x1="620.46875" x2="620.46875" y1="58.5" y2="503.5" stroke="#000000" fill="none" style="stroke-width: 2;"/><g class="note"><rect x="107.2109375" y="78.5" width="144.421875" height="28.5" stroke="#000000" fill="#ffffff" style="stroke-width: 2;"/><text x="112.2109375" y="97" style="font-size: 16px; font-family: &quot;Andale Mono&quot;, monospace;"><tspan x="112.2109375">`sls rollback`</tspan></text></g><g class="signal"><text x="102.609375" y="136.25" style="font-size: 16px; font-family: &quot;Andale Mono&quot;, monospace;"><tspan x="102.609375">Request deployments</tspan></text><line x1="87.2109375" x2="300.4296875" y1="145.5" y2="145.5" stroke="#000000" fill="none" style="stroke-width: 2; marker-end: url(&quot;#markerArrowBlock&quot;);"/></g><g class="signal"><text x="107.40625" y="174.75" style="font-size: 16px; font-family: &quot;Andale Mono&quot;, monospace;"><tspan x="107.40625">Return deployments</tspan></text><line x1="300.4296875" x2="87.2109375" y1="184" y2="184" stroke="#000000" fill="none" style="stroke-width: 2; marker-end: url(&quot;#markerArrowBlock&quot;);"/></g><g class="note"><rect x="107.2109375" y="204" width="173.21875" height="28.5" stroke="#000000" fill="#ffffff" style="stroke-width: 2;"/><text x="112.2109375" y="222.5" style="font-size: 16px; font-family: &quot;Andale Mono&quot;, monospace;"><tspan x="112.2109375">Select deployment</tspan></text></g><g class="signal"><text x="102.609375" y="261.75" style="font-size: 16px; font-family: &quot;Andale Mono&quot;, monospace;"><tspan x="102.609375">Deploy ARM template</tspan></text><line x1="87.2109375" x2="300.4296875" y1="271" y2="271" stroke="#000000" fill="none" style="stroke-width: 2; marker-end: url(&quot;#markerArrowBlock&quot;);"/></g><g class="signal"><text x="133.00390625" y="300.25" style="font-size: 16px; font-family: &quot;Andale Mono&quot;, monospace;"><tspan x="133.00390625">Request names of previously deployed artifacts</tspan></text><line x1="87.2109375" x2="620.46875" y1="309.5" y2="309.5" stroke="#000000" fill="none" style="stroke-width: 2; marker-end: url(&quot;#markerArrowBlock&quot;);"/></g><g class="signal"><text x="296.23046875" y="338.75" style="font-size: 16px; font-family: &quot;Andale Mono&quot;, monospace;"><tspan x="296.23046875">Return names</tspan></text><line x1="620.46875" x2="87.2109375" y1="348" y2="348" stroke="#000000" fill="none" style="stroke-width: 2; marker-end: url(&quot;#markerArrowBlock&quot;);"/></g><g class="note"><rect x="107.2109375" y="368" width="154.015625" height="28.5" stroke="#000000" fill="#ffffff" style="stroke-width: 2;"/><text x="112.2109375" y="386.5" style="font-size: 16px; font-family: &quot;Andale Mono&quot;, monospace;"><tspan x="112.2109375">Select artifact</tspan></text></g><g class="signal"><text x="141.80859375" y="425.75" style="font-size: 16px; font-family: &quot;Andale Mono&quot;, monospace;"><tspan x="141.80859375">Update RUN_FROM_PACKAGE path</tspan></text><line x1="87.2109375" x2="465.25" y1="435" y2="435" stroke="#000000" fill="none" style="stroke-width: 2; marker-end: url(&quot;#markerArrowBlock&quot;);"/></g><g class="note"><rect x="107.2109375" y="455" width="86.8125" height="28.5" stroke="#000000" fill="#ffffff" style="stroke-width: 2;"/><text x="112.2109375" y="473.5" style="font-size: 16px; font-family: &quot;Andale Mono&quot;, monospace;"><tspan x="112.2109375">Log URLs</tspan></text></g></svg>